<?xml version="1.0" encoding="utf-8"?>
<!-- Generator: Adobe Illustrator 27.2.0, SVG Export Plug-In . SVG Version: 6.00 Build 0)  -->
<svg version="1.1" id="Layer_1" xmlns="http://www.w3.org/2000/svg" xmlns:xlink="http://www.w3.org/1999/xlink" x="0px" y="0px"
	 viewBox="0 0 156.5 138.3" style="enable-background:new 0 0 156.5 138.3;" xml:space="preserve">
<style type="text/css">
	.st0{filter:url(#Adobe_OpacityMaskFilter);}
	.st1{fill-rule:evenodd;clip-rule:evenodd;fill:#FFFFFF;}
	
		.st2{mask:url(#logo-ffgolf-d_00000125569996323823268540000016447479728152752806_);fill-rule:evenodd;clip-rule:evenodd;fill:#929EB0;}
	.st3{fill:#929EB0;}
</style>
<g transform="translate(114.296)">
	<defs>
		<filter id="Adobe_OpacityMaskFilter" filterUnits="userSpaceOnUse" x="-94.2" y="11" width="116.4" height="116.4">
			<feColorMatrix  type="matrix" values="1 0 0 0 0  0 1 0 0 0  0 0 1 0 0  0 0 0 1 0"/>
		</filter>
	</defs>
	
		<mask maskUnits="userSpaceOnUse" x="-94.2" y="11" width="116.4" height="116.4" id="logo-ffgolf-d_00000125569996323823268540000016447479728152752806_">
		<g class="st0">
			<polygon id="logo-ffgolf-c_00000044178281231325684160000016433190915906084013_" class="st1" points="-94.2,11 22.2,11 
				22.2,127.3 -94.2,127.3 			"/>
		</g>
	</mask>
	<path class="st2" d="M-36,116.9c-26.4,0-47.7-21.4-47.7-47.7c0-26.3,21.4-47.7,47.7-47.7s47.7,21.4,47.7,47.7
		C11.7,95.5-9.7,116.9-36,116.9 M-36,11c-32.1,0-58.2,26-58.2,58.2s26,58.2,58.2,58.2c32.1,0,58.2-26,58.2-58.2S-3.9,11-36,11"/>
</g>
<path class="st3" d="M102,54.4c0,0,1.6-0.1,1.4-2.6c-0.1-2.1-4.8-6.8-6.3-7.9l3-4.5l-3.9,0.7c0,0-1.3-3.9-3.3-4.4
	c-2-0.4-2.1,1.1-2.1,1.1s-1.8-1.4-3-1.3c-1.2,0-2.1,0-2.5,1.3c-0.2,0.8,0.4,1.4,1,1.8c0.1,0.1,0.2,0.2,0.3,0.3
	c-0.3-0.1-0.7,0-0.8,0.2c-0.1,0.5,0.1,1,0.1,1.1l0,0c-0.1-0.1-0.4-0.3-0.7-0.3c-0.9-0.3-2.4,0.6-2.8,1.2c-0.5,0.8-0.9,1.8-0.3,2.8
	c1.9,3,6.8,0.7,6.8,0.7S88,46.1,88,46.9c0,0-0.4,0.4-0.8,1.2c-0.5,1.1,0.2,2.6,0.2,2.6s-0.5,1.2-0.4,2.7c0.1,1.6,0.3,8.7-1.8,9.1
	c-1.3,0.3-2.9,1.4-3.5,2c-0.6,0.6-4.4,1.7-4.3,0.2c0.1-1.5,2-3.3,2.2-3.9c0.2-0.6-1.3-1.7-1.3-1.7s1-1.4,1.5-3.3
	c0.4-1.6,0.5-2.4,0.4-4.1c-0.1-1.8-0.8-3.5-0.8-3.5s-1.3-4-4.8-5.9c-2.7-1.5-5.3-1.4-5.3-1.4S67,37.6,64.5,37
	c-2.5-0.6-3.7-0.4-3.7-0.4l1,1.1l-5.2-0.1l0.7,0.7c0,0-7.4,0.7-10.9,7.8c-3.4,7,0.2,14,0.2,14l1.5-2.1l1.4,3.3c0,0,2-0.1,2.6-1.9
	c0.6-1.8,0.5,0.6,0.5,0.6l0.8,0.8c0,0-3.9,0.6-4,4.8c-0.1,3.3,3.3,5.6,3.3,5.6l7.4,4.5l-0.7-3.2c0,0,2.6,1.8,4.6,3.5
	c2,1.7,2.8,3.2,2.8,3.2s0.4-0.7,0.7-0.8c0.3-0.1,0.8-0.1,1.4,0.5c0.6,0.6,0.3,1,0.3,1s-0.8,0-1.1,0.5c-0.3,0.5,2.3,1.9,3.8,3.4
	c0.8,1.1,1.3,2,1.6,4.1c0.4,2.6-0.7,5.4-0.7,5.4s-2.6,5.7-3.1,6.7c-0.3,0.7-1,1.9-1,1.9s-1.1,1.4-1.8,1.7c-0.6,0.3-1.7,0.1-2.4,0.5
	c-0.7,0.5-0.9,1.6-0.9,1.6s2.4-0.3,5.6,0.4c3.1,0.7,5.4,2.7,5.4,2.7s1.2-1.5,0-2.3c-1.3-0.7-2.6-1.3-2.8-2.2c-0.2-0.6,0-1.3,0.3-1.8
	c0.3-0.5,4.9-9.4,5.9-10.2c1-0.7,1-0.5,2.2-1c1.2-0.5,1.9-1.2,1.9-1.2s2.9,1.1,4.4,2.6c1.6,1.5,3.8,5.3,4.3,6c0.7,1.1,1,1.6,1.6,2.8
	c0,0,0.7,1.2,0.6,1.7c-0.1,0.6-1.6,1.1-1.8,2c-0.2,0.8,0.8,1.8,0.8,1.8s1.4-2,4.3-3.6c2.9-1.6,5-2.1,5-2.1s0.1-1.4-0.8-1.6
	c-0.9-0.1-2,0.8-3,0.9c-1,0.2-1.5-0.2-2.2-0.7c-1-0.7-5.1-8.7-5.4-9.6c-0.3-0.8-0.6-2.4,1.3-4c1.9-1.6,7.8-3.4,9.6-4.6
	c1.7-1.2,4.7-2.8,5.8-10.9C107.6,62.4,102.8,56,102,54.4z"/>
</svg>
