<?xml version="1.0" encoding="utf-8"?>
<!-- Generator: Adobe Illustrator 27.2.0, SVG Export Plug-In . SVG Version: 6.00 Build 0)  -->
<svg version="1.1" id="Calque_1" xmlns="http://www.w3.org/2000/svg" xmlns:xlink="http://www.w3.org/1999/xlink" x="0px" y="0px"
	 viewBox="0 0 50 51" style="enable-background:new 0 0 50 51;" xml:space="preserve">
<style type="text/css">
	.st0{fill:#1E3968;}
	.st1{fill:#027CBA;}
</style>
<path id="Tracé_708" class="st0" d="M49.9,14.2c-0.4-1.4-2.4-1.9-4.8-2.3h-0.3c-0.2,0-0.2-0.1-0.4-0.3c-0.5-0.6-1.2-1-2-1.2
	c-0.2,0-0.4-0.1-0.5-0.3c-0.5-0.6-1-1.1-2.8-1.3c-0.9-0.1-1-0.3-1.1-0.8c-0.1-0.9-0.8-1.7-1.8-1.7c-0.5,0.1-1.1,0-1.6-0.2
	c-0.1-0.1-0.2-0.2-0.4-0.6c-0.3-0.8-0.9-1.5-1.6-2c-0.8-0.6-1.4-1.4-1.9-2.2c-0.2-0.3-0.4-0.6-0.6-0.9c-0.2-0.4-0.7-0.5-1.1-0.4
	c-2.7,0.6-3.6,0.9-4,1.6C25.1,2,25,2.5,25.2,2.9c0.1,0.3,0.2,0.7-0.5,1.5c-0.2,0.3-0.3,0.6-0.2,0.9l0,0C24.1,5.7,23.6,6,23,6.2
	c-0.4,0.1-0.9,0.2-1.3,0.2c-0.9,0-2.4,0.1-2.7,2.1c-0.3,0.1-0.7,0.2-1.1,0.1c-0.5-0.1-1-0.5-1.2-1c-0.8-1.4-2.5-2.2-4.1-1.7
	c-0.9,0.3-1.4,1.3-1.1,2.3l0.2,0.9c0.3,0.8,0.4,1.6,0.5,2.5h-0.1c-0.1-0.1-0.2-0.1-0.3-0.2c-0.4-0.1-0.8-0.1-1.1,0.1
	c-0.8,0.2-1.2,0.4-1.6-0.8c-0.1-0.3-0.4-0.6-0.7-0.6c-1.6-0.3-2.6-0.2-3.2,0.3L4.4,9.7C3.6,9.1,1.9,9.5,1,10c-0.6,0.3-1,0.9-1,1.5
	c0,0.5,0.3,1,0.8,1.2c-0.5,0.5-0.8,1.3-0.7,2c0.2,0.7,0.8,1.3,1.5,1.6C2,16.5,2.5,16.7,3,16.7c0.5,0,0.9,0.2,1.3,0.5
	c1.9,1,3.8,2.6,4.1,3.8c0.1,0.2,0,0.5-0.1,0.7c-0.1,0.2-0.4,0.5,0.1,1.9c0.3,1.2,1.1,2.2,2.2,2.7c0.1,0.4,0.1,0.8,0.2,1.2
	c0,0.8,0.2,1.5,0.5,2.2c0,0.1-0.1,0.2-0.1,0.3c-0.2,0.3-0.3,0.7-0.4,1c-0.1,0.5,0.2,1.1,0.8,1.2c0.5,0.1,0.9-0.1,1.1-0.6
	c0.1-0.3,0.2-0.5,0.3-0.8c0.3-0.6,0.8-1.6,0-2.3c-0.1-0.4-0.2-0.8-0.2-1.2c-0.1-1.1-0.2-2.6-1.5-2.9c-0.5-0.1-1-1.3-1.2-1.9
	c0.3-0.6,0.4-1.3,0.2-1.9c-0.5-2.3-3.7-4.3-5.1-5.1c-0.6-0.4-1.4-0.7-2.2-0.8c-0.2,0-0.5-0.1-0.7-0.2c-0.1-0.1-0.2-0.1-0.3-0.2
	c0.1-0.1,0.2-0.3,0.3-0.4c0.5-0.4,0.7-1.1,0.6-1.7c-0.1-0.3-0.2-0.5-0.4-0.7c0.3-0.1,0.5-0.1,0.8-0.1c1.1,0.8,1.6,1.1,2.2,0.9
	C6,12.2,6.2,12,6.4,11.7c0.3,0,0.7,0,1,0.1c0.6,1.5,2.3,2.2,3.8,1.6c0,0,0.1,0,0.1,0c0.4,0.2,0.9,0.2,1.3,0.2
	c0.6-0.1,1.1-0.4,1.4-0.9c0.6-0.9,0.2-2.3-0.3-4.2c-0.1-0.3-0.1-0.5-0.2-0.8c0.6,0,1.2,0.3,1.5,0.8c0.8,1.5,2.5,2.4,4.2,2
	c1.1-0.2,1.8-0.8,1.9-1.6c0-0.2,0-0.3,0.1-0.5c0.2-0.1,0.5-0.1,0.7-0.1c0.6,0,1.3-0.1,1.9-0.4c1.9-0.7,2.7-1.5,2.8-2.6
	c0.6-0.8,0.9-1.8,0.7-2.8c0.4-0.2,1.3-0.4,1.9-0.5l0.1,0.2c0.6,1.1,1.4,2,2.4,2.8c0.4,0.3,0.8,0.7,1,1.2c0.5,1.1,1.1,1.9,3.6,1.9
	c0,0,0,0.1,0,0.1c0.2,1.4,1.4,2.4,2.8,2.3c1.1,0.1,1.2,0.3,1.4,0.5c0.4,0.6,0.9,0.9,1.6,1.1c0.4,0.1,0.8,0.3,1,0.6
	c0.4,0.5,0.9,0.8,1.5,0.9l0.3,0.1c1.1,0.2,2.2,0.5,3.2,0.9c-0.1,0.2-0.3,0.4-0.5,0.5c-1.2,1-1.4,3-1.5,4.6c0,0.7-0.1,1.4-0.3,2.1
	c-0.5,0.2-1,0.5-1.4,0.9c-0.3,0.4-0.8,0.7-1.3,0.8c-1.3,0.1-2.4,1.2-2.5,2.6c-0.2,1.2,0.5,2.3,1.7,2.7c0.4,0.1,0.8,0.2,1.1,0.4
	c0,0.1,0,0.2,0,0.3c0,0.5,0.1,0.9,0.2,1.3l0,0c-0.5,0.3-0.8,0.8-0.9,1.4c0,0.5,0.3,1,0.7,1.2c0.1,0.1,0.3,0.2,0.4,0.3
	c-0.7-0.1-1.3,0.3-1.7,0.9c-0.5,0.9,0.3,1.8,1,2.6l0.4,0.5c-0.6,0.5-0.9,1.3-0.7,2c0.2,0.6,0.6,1.2,1.1,1.6c0.3,0.3,0.7,0.6,1.2,0.7
	h0.4c0,0.1,0,0.2,0,0.3c-0.1,0.8-0.7,1.1-1.9,1.4c-0.9,0.2-1.9,0.5-2.2,1.6c-0.3,0.6-0.8,1-1.5,1c-0.4,0-0.8-0.3-1.3-0.8
	c-0.8-0.9-2-1.4-3.3-1.3c-0.6,0.1-1.1,0.1-1.7,0c-0.1,0-0.1,0-0.2-0.2c-0.7-0.8-1.5-1-3-0.6c-3,0.8-4.4,2.4-4.3,5
	c-0.3,0-0.5,0.1-0.8,0.3C25,49,25,49,24.6,48.8c-0.5-0.3-1.1-0.4-1.6-0.3c-0.1,0-0.3,0-0.4,0c0-0.1-0.1-0.2-0.1-0.3
	c0-0.6-0.3-1.1-0.8-1.4c-0.4-0.2-0.9-0.3-1.4-0.2c-0.3,0.1-0.6,0.1-0.9,0.1l-0.1-0.1c-0.4-0.8-1.3-1.2-2.2-0.9
	c-2,0.4-2.5,0.1-2.8-0.1c-0.3-0.2-0.7-0.3-1.1-0.3c-0.4,0.1-0.8,0-1.2-0.3c-0.2-0.2-0.4-0.3-0.7-0.3c-0.6-0.1-1.2-0.4-1.7-0.6l0,0
	c0,0,0-0.1,0-0.1c0.1-1-0.5-1.9-1.4-2.3c0.2-0.4,0.6-1.1,0.9-1.6c0.3-0.4,0.2-1.1-0.2-1.4c-0.4-0.3-1.1-0.2-1.4,0.2
	c0,0.1-0.1,0.1-0.1,0.2c-0.9,1.6-1.5,2.6-1.2,3.5c0.1,0.4,0.4,0.6,0.8,0.8c0.2,0.1,0.5,0.2,0.7,0.4v0.2c-0.1,0.8,0.3,1.5,1,1.9
	c0.7,0.4,1.4,0.6,2.1,0.8h0.1c0.7,0.5,1.5,0.7,2.3,0.7l0.1,0.1c0.7,0.4,1.7,0.8,4.2,0.3h0.1c0.6,1,1.4,1.2,2.8,0.9
	c0.1,0.6,0.4,1.2,0.9,1.6c0.6,0.3,1.2,0.4,1.9,0.2l0.2,0.1c0.4,0.3,0.9,0.4,1.4,0.4c0.5,0,0.9-0.1,1.3-0.4c0.1,0,0.2,0.1,0.3,0.2
	c0.4,0.4,1,0.3,1.4-0.1c0.2-0.2,0.3-0.6,0.2-0.9c-0.5-2.5,0.2-3.6,2.7-4.3c0.3-0.1,0.6-0.1,0.9-0.1v0.1c0.6,0.8,1.5,1.2,3.7,0.9
	c0.6-0.1,1,0.2,1.7,0.8c0.7,0.7,1.6,1.1,2.5,1.3c1.6,0.1,3-0.9,3.5-2.4c0.2-0.1,0.5-0.2,0.8-0.2c1.2-0.3,3.1-0.8,3.4-3.1
	c0-0.3,0.1-0.5,0.2-0.8c0.2-0.3,0.3-0.8,0.1-1.2c-0.3-0.4-0.8-0.6-1.3-0.6c-0.2,0-0.5,0-1,0c-0.3-0.2-0.6-0.5-0.8-0.8
	c0.1-0.1,0.2-0.2,0.3-0.2c0.3-0.2,0.6-0.5,0.6-0.9c0.1-0.8-0.5-1.5-1.1-2.2l-0.2-0.2c0.6-0.2,1.1-0.6,1.3-1.2c0.2-0.8,0-1.7-0.7-2.3
	c0.6-0.4,0.8-1.1,0.5-1.8c-0.1-0.3-0.2-0.7-0.2-1.1c0-0.5-0.2-1-0.5-1.4c-0.6-0.5-1.3-0.9-2.1-1c-0.2-0.2-0.2-0.4-0.2-0.6
	c0-0.4,0.3-0.7,0.7-0.8c0.9-0.2,1.8-0.6,2.4-1.3c0.2-0.2,0.4-0.3,0.6-0.5c1.5-0.3,1.7-2.1,1.8-3.8c0.1-1.2,0.3-2.8,0.9-3.3
	C49.1,16.4,50.3,15.4,49.9,14.2L49.9,14.2z"/>
<path id="Tracé_710" class="st0" d="M10.6,36.6c0.6,0,1-0.4,1-1s-0.4-1-1-1l0,0c-0.6,0-1,0.4-1,1S10,36.6,10.6,36.6z"/>
<circle id="Ellipse_14" class="st1" cx="4.2" cy="15.4" r="1.2"/>
<circle id="Ellipse_14_00000084510364108083253260000015466496006965548725_" class="st1" cx="5.3" cy="15.4" r="1.2"/>
<circle id="Ellipse_14_00000101065774382367645930000012414641467748006843_" class="st1" cx="6.5" cy="16.6" r="1.2"/>
<circle id="Ellipse_14_00000169529057223335915000000016513675099359860874_" class="st1" cx="6.5" cy="15.4" r="1.2"/>
<circle id="Ellipse_14_00000142172350922527546860000011464177084359869354_" class="st1" cx="7.7" cy="11.3" r="1.2"/>
<circle id="Ellipse_14_00000031891653153619706560000016378274000098670469_" class="st1" cx="3" cy="13.6" r="1.2"/>
<circle id="Ellipse_14_00000106836221322114715030000002096012212638848950_" class="st1" cx="10.6" cy="14.8" r="1.2"/>
<circle id="Ellipse_14_00000127023622540063170770000002772850573284205241_" class="st1" cx="9.4" cy="18.9" r="1.2"/>
<circle id="Ellipse_14_00000039817276817703948430000010820694424078528172_" class="st1" cx="10.6" cy="20.1" r="1.2"/>
<circle id="Ellipse_14_00000137125489646053300510000002577501152475717504_" class="st1" cx="10.6" cy="21.3" r="1.2"/>
<circle id="Ellipse_14_00000181077048883294070550000001609219865713253778_" class="st1" cx="12.2" cy="21.9" r="1.2"/>
<circle id="Ellipse_14_00000147938637882964741910000001504142858289025948_" class="st1" cx="14.6" cy="21.3" r="1.2"/>
<circle id="Ellipse_14_00000007389677711706192610000001084277603898317473_" class="st1" cx="15.2" cy="22.5" r="1.2"/>
<circle id="Ellipse_14_00000049938416726532765900000009227020180584562836_" class="st1" cx="16.9" cy="23.6" r="1.2"/>
<circle id="Ellipse_14_00000122720015184845431340000004218866636190546090_" class="st1" cx="20.1" cy="20.1" r="1.2"/>
<circle id="Ellipse_14_00000045593222806256653490000009261476009204524976_" class="st1" cx="16.4" cy="17.8" r="1.2"/>
<circle id="Ellipse_14_00000065764210443809463530000003466004463100371876_" class="st1" cx="12.2" cy="17.8" r="1.2"/>
<circle id="Ellipse_14_00000098207684654425734130000000242111410518016703_" class="st1" cx="16.9" cy="10.1" r="1.2"/>
<circle id="Ellipse_14_00000138575019371569139780000015767999057473602455_" class="st1" cx="20.1" cy="9.4" r="1.2"/>
<circle id="Ellipse_14_00000116215720411941328430000014973922721118214305_" class="st1" cx="28.8" cy="14.3" r="1.2"/>
<circle id="Ellipse_14_00000167378345370186480570000010481214406984634006_" class="st1" cx="27.6" cy="13.6" r="1.2"/>
<circle id="Ellipse_14_00000035513270508454088950000004785745462161330820_" class="st1" cx="26.4" cy="14.3" r="1.2"/>
<circle id="Ellipse_14_00000154413343950643815480000010115048654232785575_" class="st1" cx="27.6" cy="15.4" r="1.2"/>
<circle id="Ellipse_14_00000023278129844728267190000010538200696905244032_" class="st1" cx="26.4" cy="13.1" r="1.2"/>
<circle id="Ellipse_14_00000058573719188145198740000000176517338568860830_" class="st1" cx="25.3" cy="14.8" r="1.2"/>
<circle id="Ellipse_14_00000049939756232334342590000007692843664764322964_" class="st1" cx="28.8" cy="2.3" r="1.2"/>
<circle id="Ellipse_14_00000121276381071527110160000001836894184051165312_" class="st1" cx="30.7" cy="4.6" r="1.2"/>
<circle id="Ellipse_14_00000146482572163135725540000001393985873770852792_" class="st1" cx="39" cy="20.1" r="1.2"/>
<circle id="Ellipse_14_00000090281535076190315690000008403920107468509370_" class="st1" cx="40.2" cy="23.1" r="1.2"/>
<circle id="Ellipse_14_00000008871418213721397010000000986215736632119704_" class="st1" cx="35.9" cy="29.9" r="1.2"/>
<circle id="Ellipse_14_00000015313774866821541730000016555112457813032326_" class="st1" cx="33" cy="31.6" r="1.2"/>
<circle id="Ellipse_14_00000023971528680802100950000003349974452470392710_" class="st1" cx="40.2" cy="32.7" r="1.2"/>
<circle id="Ellipse_14_00000129197925197099966890000013801583554485261724_" class="st1" cx="26.4" cy="35.6" r="1.2"/>
<circle id="Ellipse_14_00000041264581314293772310000011550312207581124776_" class="st1" cx="16.9" cy="33.9" r="1.2"/>
<circle id="Ellipse_14_00000057132983415174734410000002583791046582699680_" class="st1" cx="13.4" cy="31.1" r="1.2"/>
<circle id="Ellipse_14_00000039821429877517320690000009575664786042233760_" class="st1" cx="12.2" cy="32.3" r="1.2"/>
<circle id="Ellipse_14_00000167363037876321125210000013212573388785775545_" class="st1" cx="11.7" cy="35.8" r="1.2"/>
<circle id="Ellipse_14_00000098182176567081888210000004716975807154487714_" class="st1" cx="9.4" cy="40.7" r="1.2"/>
<circle id="Ellipse_14_00000008143519730900158970000010618350525195288718_" class="st1" cx="15.2" cy="43.1" r="1.2"/>
<circle id="Ellipse_14_00000062191449838694187040000012463859495506622122_" class="st1" cx="43.8" cy="43.1" r="1.2"/>
<circle id="Ellipse_14_00000064330477080842120130000003045788352674541229_" class="st1" cx="42.1" cy="44.2" r="1.2"/>
<circle id="Ellipse_14_00000053525995830041677530000004320801043623552953_" class="st1" cx="40.2" cy="45.3" r="1.2"/>
</svg>
