<?xml version="1.0" encoding="utf-8"?>
<!-- Generator: Adobe Illustrator 27.2.0, SVG Export Plug-In . SVG Version: 6.00 Build 0)  -->
<svg version="1.1" id="Calque_1" xmlns="http://www.w3.org/2000/svg" xmlns:xlink="http://www.w3.org/1999/xlink" x="0px" y="0px"
	 viewBox="0 0 788 176" style="enable-background:new 0 0 788 176;" xml:space="preserve">
<style type="text/css">
	.st0{fill:#FFFFFF;}
	.st1{fill:#10BAE7;}
</style>
<g>
	<path class="st0" d="M219,93.6c-1.8-2.2-4.1-3.9-6.6-5.1v-0.6c1.9-1.1,3.4-2.8,4.6-4.6c1.5-2.5,2.2-5.3,2.2-8.2
		c0.1-4.4-1.7-8.7-5.1-11.6c-4.8-3.6-10.6-5.4-16.6-5.1h-41.8V67l6.2,1.2v15.3l0,0v40.8H199c6.2,0.2,12.3-1.9,17.1-5.8
		c4.2-3.5,6.5-8.8,6.5-14.3C222.7,100.3,221.5,96.6,219,93.6z M175.9,69.2H197c2.2-0.1,4.3,0.7,6.1,2c1.5,1.3,2.3,3.3,2.2,5.2
		c0,1.9-0.7,3.8-1.9,5.2c-1.4,1.5-3.4,2.4-5.5,2.3H176L175.9,69.2L175.9,69.2z M206.5,110.2c-2,2-4.9,3.1-7.8,3h-22.8V94.3h23
		c2.8-0.1,5.6,0.9,7.6,2.9c3.1,3.8,3,9.3-0.2,13C206.3,110.2,206.5,110.2,206.5,110.2z"/>
	<path class="st0" d="M287.8,113.3v10.8h-53.1V58.3H249v54.9h38.8V113.3z"/>
	<path class="st0" d="M296.4,58.3h14.3V96c-0.3,4.9,1.3,9.8,4.5,13.6c3.2,3.2,7.5,4.8,12.1,4.6c4.5,0.3,8.9-1.2,12.3-4.3
		c3-3.2,4.3-7.5,4.3-13.8V58.4h14v37.2c0.4,8.1-2.6,16.1-8.4,21.9c-6.2,5.4-14.3,8.2-22.5,7.8c-8,0.3-15.7-2.3-21.9-7.3
		c-5.5-4.9-8.7-12.5-8.8-22.4V58.3H296.4z"/>
	<path class="st0" d="M372.6,58.3h54.3v11.1h-40.3v14.9h35.7v11h-35.7v17.8h41.6v11.1h-55.6V58.3z"/>
	<path class="st0" d="M478.6,89.3v8.5l6.2,1.2v14.3c-3.4,0.7-6.8,1-10.2,1c-7.1,0.2-13.9-2.5-18.9-7.5c-3.8-4.3-5.7-9.8-5.6-15.6
		c-0.2-6.3,2.1-12.5,6.6-16.9c5-4.3,11.4-6.4,18-6.1c6.6,0,13.2,1.3,19.3,3.9l4.3-9.5c-7.5-3.7-15.9-5.6-24.4-5.2
		c-9.7-0.4-19.1,2.6-26.7,8.5c-7,5.6-11.2,14.1-11.2,25.5c-0.3,9,3.2,17.7,9.7,24c7.2,6.8,17,10.2,28.4,10.2
		c8.4,0.2,16.8-1.7,24.4-5.6l0,0V89.3H478.6L478.6,89.3z"/>
	<path class="st0" d="M547.7,58.3c7.1-0.3,14,2,19.4,6.6c4.6,4.3,7.1,10.3,6.9,16.6c0.1,5.7-2,11.1-5.8,15.3c-3,3-6.6,5.2-10.7,6.1
		l5.1,6.5c1.3,1.8,3,3.3,4.9,4.3c2,1.1,4.3,1.6,6.6,1.7l-0.7,9.5c-4.4,0.2-8.9-0.5-13-2.2c-3.9-2.2-7.3-5.3-9.8-9.1l-6.6-9.1h-18
		V124h-14V58.3H547.7z M559.8,81.2c0.2-3.3-1.1-6.5-3.4-8.8c-2.5-2.3-5.9-3.4-9.3-3.3h-21.2v24.4h21.4c3.4,0.2,6.8-1.1,9.3-3.4
		C558.8,87.8,559.9,84.5,559.8,81.2L559.8,81.2z"/>
	<path class="st0" d="M586.1,58.3h54.1v11.1H600v14.9h35.7v11H600v17.8h41.6v11.1H586L586.1,58.3L586.1,58.3z"/>
	<path class="st0" d="M654.1,58.3h54.1v11.1h-40.1v14.9h35.7v11h-35.7v17.8h41.4v11.1H654L654.1,58.3L654.1,58.3z"/>
	<polygon class="st0" points="765.1,58.3 765.1,66.9 771.5,68.1 771.5,103.5 735.3,58.3 722.2,58.3 722.2,124.1 735.7,124.1 
		735.7,78.5 771.8,124.1 784.9,124.1 784.9,58.3 	"/>
</g>
<path class="st1" d="M105.3,23.3c-6.4,0-11.7-5.2-11.7-11.7C93.6,5.2,98.8,0,105.3,0c6.4,0,11.7,5.2,11.7,11.7l0,0
	C116.9,18.1,111.7,23.3,105.3,23.3z M109.6,11.7c0-2.4-1.9-4.4-4.3-4.4s-4.4,1.9-4.4,4.3s1.9,4.4,4.3,4.4l0,0
	C107.7,16,109.6,14.1,109.6,11.7z"/>
<path class="st1" d="M122.6,44l-67-22.6c-1.9-0.6-4,0.4-4.6,2.3c-0.1,0.4-0.2,0.8-0.2,1.1v99.4c-10.7,0.6-21.1,4-30.1,9.9l-13.4-7.7
	V51.1h32.5c2,0,3.7-1.6,3.7-3.7c0-2-1.6-3.7-3.7-3.7H3.7c-2,0-3.7,1.6-3.7,3.7l0,0v81.1c0,1.3,0.7,2.5,1.8,3.2L52.6,161
	c1.1,0.7,2.5,0.7,3.7,0l50.8-29.3c1.1-0.7,1.8-1.9,1.8-3.2V68.4c0-2-1.6-3.7-3.7-3.7s-3.7,1.6-3.7,3.7v58L88,134.2
	c-9-5.9-19.3-9.3-30-9.9V72.5l64.5-21.6c1.9-0.6,3-2.7,2.3-4.6C124.6,45.2,123.7,44.4,122.6,44L122.6,44z M80.9,138.4l-26.5,15.3
	l-26.5-15.3C44.4,129.2,64.5,129.2,80.9,138.4z M58.1,64.8V30l51.8,17.5L58.1,64.8z"/>
</svg>
