<?xml version="1.0" encoding="utf-8"?>
<!-- Generator: Adobe Illustrator 27.2.0, SVG Export Plug-In . SVG Version: 6.00 Build 0)  -->
<svg version="1.1" id="Calque_1" xmlns="http://www.w3.org/2000/svg" xmlns:xlink="http://www.w3.org/1999/xlink" x="0px" y="0px"
	 viewBox="0 0 395.5 161.6" style="enable-background:new 0 0 395.5 161.6;" xml:space="preserve">
<style type="text/css">
	.st0{fill:#FFFFFF;}
</style>
<path class="st0" d="M173.3,95.1c-0.7-0.9-1.6-1.6-2.6-2v-0.2c0.7-0.5,1.3-1.1,1.8-1.8c0.6-1,0.9-2.1,0.9-3.2c0-1.7-0.7-3.4-2-4.6
	c-1.9-1.4-4.2-2.1-6.5-2h-16.4v3.4l2.4,0.5v6l0,0v16h14.6c2.4,0.1,4.8-0.7,6.7-2.3c1.6-1.4,2.6-3.4,2.5-5.6
	C174.8,97.7,174.3,96.3,173.3,95.1z M156.4,85.5h8.3c0.9,0,1.7,0.3,2.4,0.8c0.6,0.5,0.9,1.3,0.9,2.1c0,0.8-0.3,1.5-0.7,2.1
	c-0.6,0.6-1.3,0.9-2.1,0.9h-8.6L156.4,85.5L156.4,85.5z M168.4,101.6c-0.8,0.8-1.9,1.2-3.1,1.2h-8.9v-7.4h9c1.1,0,2.2,0.4,3,1.1
	C169.7,98,169.6,100.2,168.4,101.6L168.4,101.6z"/>
<path class="st0" d="M200.3,102.8v4.3h-20.9V81.3h5.6v21.6L200.3,102.8z"/>
<path class="st0" d="M203.7,81.3h5.6v14.8c-0.1,1.9,0.5,3.9,1.8,5.3c1.2,1.2,3,1.9,4.7,1.8c1.8,0.1,3.5-0.5,4.8-1.7
	c1.2-1.2,1.7-2.9,1.7-5.4V81.3h5.5v14.6c0.2,3.2-1,6.3-3.3,8.6c-2.4,2.1-5.6,3.2-8.8,3.1c-3.1,0.1-6.2-0.9-8.6-2.9
	c-2.1-1.9-3.4-4.9-3.4-8.8L203.7,81.3L203.7,81.3z"/>
<path class="st0" d="M233.6,81.3h21.3v4.3h-15.8v5.8h14v4.3h-14v7h16.3v4.3h-21.8V81.3z"/>
<path class="st0" d="M275.2,93.4v3.4l2.5,0.5v5.6c-1.3,0.3-2.7,0.4-4,0.4c-2.8,0.1-5.5-1-7.5-2.9c-1.5-1.7-2.3-3.9-2.2-6.1
	c-0.1-2.5,0.8-4.9,2.6-6.6c2-1.7,4.5-2.5,7.1-2.4c2.6,0,5.2,0.5,7.6,1.5l1.7-3.8c-3-1.5-6.3-2.2-9.6-2.1c-3.8-0.1-7.5,1-10.5,3.4
	c-2.8,2.2-4.4,5.6-4.4,10c-0.1,3.5,1.2,7,3.8,9.4c2.8,2.7,6.7,4,11.1,4c3.3,0.1,6.6-0.7,9.5-2.2l0,0v-12L275.2,93.4L275.2,93.4z"/>
<path class="st0" d="M302.4,81.3c2.8-0.1,5.5,0.8,7.6,2.6c1.8,1.7,2.8,4,2.7,6.5c0,2.2-0.8,4.4-2.3,6c-1.1,1.2-2.6,2-4.2,2.4l2,2.5
	c0.5,0.7,1.2,1.3,1.9,1.7c0.8,0.4,1.7,0.6,2.6,0.7l-0.3,3.7c-1.7,0.1-3.5-0.2-5.1-0.9c-1.5-0.9-2.9-2.1-3.8-3.6l-2.6-3.6h-7.1v7.7
	h-5.5V81.3H302.4z M307.1,90.3c0.1-1.3-0.4-2.5-1.3-3.4c-1-0.9-2.3-1.4-3.7-1.3h-8.3v9.6h8.4c1.3,0.1,2.7-0.4,3.7-1.3
	C306.7,92.8,307.2,91.5,307.1,90.3L307.1,90.3z"/>
<path class="st0" d="M317.4,81.3h21.3v4.3h-15.8v5.8h14v4.3h-14v7h16.3v4.3h-21.8V81.3z"/>
<path class="st0" d="M344.2,81.3h21.3v4.3h-15.8v5.8h14v4.3h-14v7h16.3v4.3h-21.8V81.3z"/>
<polygon class="st0" points="387.8,81.3 387.8,84.6 390.2,85.1 390.2,99 376,81.3 370.9,81.3 370.9,107.1 376.2,107.1 376.2,89.2 
	390.3,107.1 395.5,107.1 395.5,81.3 "/>
<path class="st0" d="M105.3,23.3c-6.4,0-11.7-5.2-11.7-11.7C93.6,5.2,98.8,0,105.3,0c6.4,0,11.7,5.2,11.7,11.7c0,0,0,0,0,0
	C116.9,18.1,111.7,23.3,105.3,23.3z M109.6,11.7c0-2.4-1.9-4.4-4.3-4.4c-2.4,0-4.4,1.9-4.4,4.3c0,2.4,1.9,4.4,4.3,4.4c0,0,0,0,0,0
	C107.7,16,109.6,14.1,109.6,11.7z"/>
<path class="st0" d="M122.6,44l-67-22.6c-1.9-0.6-4,0.4-4.6,2.3c-0.1,0.4-0.2,0.8-0.2,1.1v99.4c-10.7,0.6-21.1,4-30.1,9.9l-13.4-7.7
	V51.1h32.5c2,0,3.7-1.6,3.7-3.7c0-2-1.6-3.7-3.7-3.7H3.7c-2,0-3.7,1.6-3.7,3.7l0,0v81.1c0,1.3,0.7,2.5,1.8,3.2l50.8,29.3
	c1.1,0.7,2.5,0.7,3.7,0l50.8-29.3c1.1-0.7,1.8-1.9,1.8-3.2V68.4c0-2-1.6-3.7-3.7-3.7s-3.7,1.6-3.7,3.7v58l-13.5,7.8
	c-9-5.9-19.3-9.3-30-9.9V72.5l64.5-21.6c1.9-0.6,3-2.7,2.3-4.6C124.6,45.2,123.7,44.4,122.6,44L122.6,44z M80.9,138.4l-26.5,15.3
	l-26.5-15.3C44.4,129.2,64.5,129.2,80.9,138.4z M58.1,64.8V30l51.8,17.5L58.1,64.8z"/>
</svg>
